<svg version="1.1" xmlns="http://www.w3.org/2000/svg" xmlns:xlink="http://www.w3.org/1999/xlink" width="311.72656" height="130" style="padding:20px;color:white" viewBox="0,0,350,130"><g transform="translate(-85.5231,-130.86365)"><g data-paper-data="{&quot;isPaintingLayer&quot;:true}" fill-rule="nonzero" stroke-linejoin="miter" stroke-miterlimit="10" stroke-dasharray="" stroke-dashoffset="0" style="mix-blend-mode: normal"><g><g fill="none" stroke="white" stroke-width="1.5" stroke-linecap="round"><path d="M226.70463,165.77713c0,0 -3.66384,-0.30238 -5.50797,-0.56225c-3.34612,-0.47154 -5.6665,-2.26348 -5.6665,-2.26348c0,0 0.04524,-8.55306 3.25325,-15.52182c2.82013,-6.46725 8.94876,-8.11155 8.94876,-8.11155"/><path d="M258.94363,158.07059c0,0 2.53593,-0.69818 4.64837,2.7477c1.52515,2.48788 -0.96678,6.44377 -0.96678,6.44377c0,0 -3.6546,5.7687 -7.75278,7.23671c-4.47437,1.60276 -29.43609,1.94278 -33.82531,0.41516c-4.34439,-1.51202 -10.01243,-8.75147 -10.01243,-8.75147c0,0 -1.67876,-3.1768 0.69915,-6.06384c1.99109,-2.4174 3.79632,-2.15646 3.79632,-2.15646"/><path d="M246.61318,167.96063c0,0 -18.07855,1.471 -19.13789,-0.38532c-1.4509,-2.54245 0.89344,-9.15514 4.88081,-19.13789c1.69184,-4.23567 2.05508,-12.97266 2.05508,-12.97266c0,0 0.27346,-3.91545 3.21639,-3.85031c0.72407,0.01603 1.26285,0.32568 1.66358,0.76844c1.07633,1.18921 1.1568,3.33875 1.1568,3.33875c0,0 0.12326,5.91946 3.08262,12.84422c1.42149,3.32621 2.50411,6.72267 3.16948,9.72638c0.95915,4.32994 1.05127,7.84376 0.04157,9.15463"/><path d="M227.21841,149.72185c0,0 -2.67432,-15.44359 6.67899,-14.77085"/><path d="M247.8976,139.57491c0,0 0.27214,1.43505 -0.25688,10.27538"/><path d="M240.31951,134.82255c0,0 5.30732,-1.62943 7.57809,5.26613c0.09196,0.27925 4.45505,1.34074 8.00024,7.54614c4.49816,7.87346 2.91735,15.7019 2.91735,15.7019c0,0 -3.78692,1.37256 -5.6084,1.74942c-1.90002,0.39311 -5.9514,0.69098 -5.9514,0.69098"/></g><text transform="translate(94.10643,173.68323) scale(0.5,0.5)" font-size="50" xml:space="preserve" fill="none" fill-rule="nonzero" stroke="none" stroke-width="3" stroke-linecap="butt" stroke-linejoin="miter" stroke-miterlimit="10" stroke-dasharray="" stroke-dashoffset="0" font-family="Arial" font-weight="normal" text-anchor="start" style="mix-blend-mode: normal"><tspan x="0" dy="0">N</tspan></text><text transform="translate(86.2731,205.34989) scale(0.5,0.5)" font-size="40" xml:space="preserve" fill="white" fill-rule="nonzero" stroke="none" stroke-width="3" stroke-linecap="butt" stroke-linejoin="miter" stroke-miterlimit="10" stroke-dasharray="" stroke-dashoffset="0" font-family="Arial" font-weight="normal" text-anchor="start" style="mix-blend-mode: normal"><tspan x="0" dy="0">NOKS CONSTRUCTION (PTY) LTD</tspan></text><text transform="translate(92,227.08833) scale(0.3,0.3)" font-size="40" xml:space="preserve" fill="lightblue" fill-rule="nonzero" stroke="none" stroke-width="3" stroke-linecap="butt" stroke-linejoin="miter" stroke-miterlimit="10" stroke-dasharray="" stroke-dashoffset="0" font-family="Arial" font-weight="normal" text-anchor="start" style="mix-blend-mode: normal"><tspan x="0" dy="0">"BUILDING FOUNDATIONS FOR A BETTER TOMORROW"</tspan></text></g></g></g></svg>